<svg width="512" height="512" viewBox="0 0 512 512" xmlns="http://www.w3.org/2000/svg" role="img" aria-label="Icono escalabilidad">
<defs><linearGradient id="g_esc" x1="0" y1="0" x2="1" y2="1"><stop offset="0%" stop-color="#0c0a2e"/><stop offset="55%" stop-color="#1d4ed8"/><stop offset="100%" stop-color="#f59e0b"/></linearGradient></defs>
<rect width="512" height="512" rx="112" fill="url(#g_esc)"/>
<g opacity="0.08" fill="#fff"><circle cx="80" cy="80" r="5"/><circle cx="150" cy="80" r="5"/><circle cx="220" cy="80" r="5"/><circle cx="290" cy="80" r="5"/><circle cx="360" cy="80" r="5"/><circle cx="430" cy="80" r="5"/><circle cx="80" cy="430" r="5"/><circle cx="150" cy="430" r="5"/><circle cx="220" cy="430" r="5"/><circle cx="290" cy="430" r="5"/><circle cx="360" cy="430" r="5"/><circle cx="430" cy="430" r="5"/></g>
<circle cx="256" cy="250" r="148" fill="#ffffff" opacity="0.07"/>
<g transform="translate(256, 244)">
<rect x="-104" y="-96" width="208" height="192" rx="28" fill="#ffffff"/>
<rect x="-84" y="-76" width="168" height="16" rx="8" fill="#dbeafe"/><rect x="-84" y="-76" width="52" height="16" rx="8" fill="#1d4ed8"/>
<rect x="-84" y="-52" width="50" height="70" rx="10" fill="#dbeafe"/><rect x="-84" y="-6" width="50" height="24" rx="6" fill="#93c5fd"/>
<rect x="-24" y="-32" width="50" height="50" rx="10" fill="#bfdbfe"/><rect x="-24" y="-6" width="50" height="24" rx="6" fill="#3b82f6"/>
<rect x="36" y="-62" width="50" height="80" rx="10" fill="#1d4ed8"/><rect x="36" y="-6" width="50" height="24" rx="6" fill="#1e3a8a"/>
<path d="M -92 -70 L -30 -84 L 30 -58 L 90 -78" fill="none" stroke="#f59e0b" stroke-width="7" stroke-linecap="round" stroke-linejoin="round"/>
<circle cx="90" cy="-78" r="10" fill="#f59e0b" stroke="#ffffff" stroke-width="3"/>
<g transform="translate(74, 62)"><rect x="-30" y="-16" width="60" height="32" rx="16" fill="#f59e0b" stroke="#ffffff" stroke-width="3"/><text x="0" y="7" text-anchor="middle" font-size="13" font-weight="900" fill="#ffffff">×10</text></g>
</g>
<g transform="translate(256, 428)"><rect x="-80" y="-18" width="160" height="36" rx="18" fill="#ffffff"/><text x="0" y="7" text-anchor="middle" font-family="Inter, sans-serif" font-size="15" font-weight="900" letter-spacing="1.5" fill="#1e40af">SCALE • ×10</text></g>
</svg>