<svg width="512" height="512" viewBox="0 0 512 512" xmlns="http://www.w3.org/2000/svg" role="img" aria-label="Biome Icon">
  <defs>
    <linearGradient id="g_biome" x1="0" y1="0" x2="1" y2="1">
      <stop offset="0%" stop-color="#1a0a00"/>
      <stop offset="55%" stop-color="#7c2d12"/>
      <stop offset="100%" stop-color="#f59e0b"/>
    </linearGradient>
  </defs>
  <rect width="512" height="512" rx="112" fill="url(#g_biome)"/>
  <g opacity="0.07" fill="#fff">
    <circle cx="72" cy="72" r="5"/><circle cx="152" cy="72" r="5"/><circle cx="232" cy="72" r="5"/><circle cx="312" cy="72" r="5"/><circle cx="392" cy="72" r="5"/>
    <circle cx="72" cy="152" r="5"/><circle cx="152" cy="152" r="5"/><circle cx="232" cy="152" r="5"/><circle cx="312" cy="152" r="5"/><circle cx="392" cy="152" r="5"/>
    <circle cx="72" cy="392" r="5"/><circle cx="152" cy="392" r="5"/><circle cx="232" cy="392" r="5"/><circle cx="312" cy="392" r="5"/><circle cx="392" cy="392" r="5"/>
  </g>
  <circle cx="256" cy="256" r="158" fill="#ffffff" opacity="0.06"/>
  <circle cx="256" cy="256" r="124" fill="#ffffff" opacity="0.08"/>
  <!-- Lightning bolt -->
  <g transform="translate(256, 256)">
    <path d="M -60 -120 L 30 -120 L -10 -30 L 50 -30 L -40 130 L 0 10 L -60 10 Z" fill="#fcd34d" stroke="#ffffff" stroke-width="4" stroke-linejoin="round"/>
  </g>
  <!-- Speed lines -->
  <g stroke="#fcd34d" stroke-width="4" stroke-linecap="round" opacity="0.6">
    <line x1="50" y1="80" x2="100" y2="80"/>
    <line x1="40" y1="120" x2="110" y2="120"/>
    <line x1="60" y1="160" x2="120" y2="160"/>
    <line x1="55" y1="200" x2="105" y2="200"/>
  </g>
  <text x="256" y="450" font-family="monospace" font-size="22" font-weight="900" fill="#ffffff" text-anchor="middle" opacity="0.95">BIOME</text>
</svg>