<svg width="512" height="512" viewBox="0 0 512 512" xmlns="http://www.w3.org/2000/svg" role="img" aria-label="Icono diseno UI con IA">
<defs><linearGradient id="g_dsg" x1="0" y1="0" x2="1" y2="1"><stop offset="0%" stop-color="#0f0520"/><stop offset="55%" stop-color="#4c1d95"/><stop offset="100%" stop-color="#ec4899"/></linearGradient></defs>
<rect width="512" height="512" rx="112" fill="url(#g_dsg)"/>
<g opacity="0.08" fill="#fff"><circle cx="80" cy="80" r="5"/><circle cx="150" cy="80" r="5"/><circle cx="220" cy="80" r="5"/><circle cx="290" cy="80" r="5"/><circle cx="360" cy="80" r="5"/><circle cx="430" cy="80" r="5"/><circle cx="80" cy="430" r="5"/><circle cx="150" cy="430" r="5"/><circle cx="220" cy="430" r="5"/><circle cx="290" cy="430" r="5"/><circle cx="360" cy="430" r="5"/><circle cx="430" cy="430" r="5"/></g>
<circle cx="256" cy="250" r="148" fill="#ffffff" opacity="0.07"/>
<g transform="translate(256, 244)">
<rect x="-104" y="-96" width="208" height="192" rx="28" fill="#ffffff"/>
<rect x="-104" y="-96" width="208" height="40" rx="20" fill="#7c3aed"/><rect x="-104" y="-72" width="208" height="16" fill="#7c3aed"/>
<circle cx="-84" cy="-76" r="5" fill="#f472b6"/><circle cx="-68" cy="-76" r="5" fill="#fde68a"/><circle cx="-52" cy="-76" r="5" fill="#6ee7b7"/>
<rect x="-84" y="-38" width="88" height="18" rx="6" fill="#1e1b4b"/><rect x="-84" y="-12" width="168" height="10" rx="5" fill="#c4b5fd"/><rect x="-84" y="6" width="120" height="10" rx="5" fill="#e9d5ff"/>
<rect x="-84" y="28" width="96" height="34" rx="17" fill="#7c3aed"/><rect x="24" y="28" width="96" height="34" rx="17" fill="none" stroke="#c4b5fd" stroke-width="3"/>
<g transform="translate(74, -58)"><rect x="-26" y="-16" width="52" height="32" rx="16" fill="#ec4899" stroke="#ffffff" stroke-width="3"/><text x="0" y="7" text-anchor="middle" font-size="16" font-weight="900" fill="#ffffff">✓</text></g>
</g>
<g transform="translate(256, 428)"><rect x="-88" y="-18" width="176" height="36" rx="18" fill="#ffffff"/><text x="0" y="7" text-anchor="middle" font-family="Inter, sans-serif" font-size="15" font-weight="900" letter-spacing="1.5" fill="#6d28d9">UI • 10 PROMPTS</text></g>
</svg>